<svg width="30" height="48" viewBox="0 0 30 48" fill="none" xmlns="http://www.w3.org/2000/svg">
<path d="M15.2978 18.1818L15.4736 47.2727M15.0388 4C15.0388 4 11.2333 6.60044 11.2333 11.2234C11.2333 15.8464 15.0388 18.6274 15.0388 18.6274C15.0388 18.6274 18.8442 15.9186 18.8442 11.2234C18.8442 6.52821 15.0388 4 15.0388 4ZM27.3255 13.9385C27.3255 13.9385 23.2191 12.3573 19.4213 14.932C15.6235 17.5066 15.3092 22.0848 15.3092 22.0848C15.3092 22.0848 19.5045 23.6056 23.3614 20.9907C27.2189 18.3758 27.3255 13.9385 27.3255 13.9385ZM27.3255 23.0294C27.3255 23.0294 23.2191 21.4483 19.4213 24.023C15.6235 26.5977 15.3092 31.1758 15.3092 31.1758C15.3092 31.1758 19.5045 32.6966 23.3614 30.0817C27.2189 27.4669 27.3255 23.0294 27.3255 23.0294ZM27.3255 31.393C27.3255 31.393 23.2191 29.8118 19.4213 32.3865C15.6235 34.9611 15.3092 39.5393 15.3092 39.5393C15.3092 39.5393 19.5045 41.0602 23.3614 38.4453C27.2189 35.8304 27.3255 31.393 27.3255 31.393ZM3.2002 13.9385C3.2002 13.9385 7.30659 12.3573 11.1044 14.932C14.9023 17.5066 15.2165 22.0848 15.2165 22.0848C15.2165 22.0848 11.0212 23.6056 7.16436 20.9907C3.30685 18.3758 3.2002 13.9385 3.2002 13.9385ZM3.2002 23.0294C3.2002 23.0294 7.30659 21.4483 11.1044 24.023C14.9023 26.5977 15.2165 31.1758 15.2165 31.1758C15.2165 31.1758 11.0212 32.6966 7.16436 30.0817C3.30685 27.4669 3.2002 23.0294 3.2002 23.0294ZM3.2002 31.393C3.2002 31.393 7.30659 29.8118 11.1044 32.3865C14.9023 34.9611 15.2165 39.5393 15.2165 39.5393C15.2165 39.5393 11.0212 41.0602 7.16436 38.4453C3.30685 35.8304 3.2002 31.393 3.2002 31.393Z" stroke="#2EB55C" stroke-width="5"/>
</svg>
