<svg width="310" height="234" viewBox="0 0 310 234" fill="none" xmlns="http://www.w3.org/2000/svg">
<path d="M63.9766 92.8875C45.1612 87.0076 29.8897 79.3831 19.3716 70.6179C8.85349 61.8526 3.37759 52.1874 3.37759 42.3875L3.37758 3.24999M306.372 230.5L306.372 190.1C305.82 180.833 300.375 171.73 290.425 163.438C280.475 155.146 266.265 147.87 248.803 142.125M3.3776 230.5L3.3776 190.1C3.22534 179.206 9.84242 168.48 22.5852 158.967C35.3281 149.454 53.7628 141.477 76.0963 135.813L233.654 97.9375C255.987 92.2725 274.422 84.2956 287.165 74.7826C299.908 65.2695 306.525 54.5443 306.372 43.65L306.372 3.24997M306.372 205.25L3.3776 205.25M294.253 167.375L12.4674 167.375M276.073 66.375L12.4674 66.375M306.372 28.5L3.37759 28.5" stroke="#E9E9E9" stroke-width="6" stroke-linecap="round" stroke-linejoin="round"/>
</svg>
