<svg width="326" height="225" viewBox="0 0 326 225" fill="none" xmlns="http://www.w3.org/2000/svg">
<path d="M161.937 4.40481C162.696 4.07765 163.556 4.07766 164.314 4.40481L311.389 67.8491C313.805 68.8911 313.805 72.3163 311.389 73.3584L164.314 136.803C163.556 137.13 162.696 137.13 161.937 136.803L14.8621 73.3584C12.4465 72.3163 12.4465 68.8911 14.8621 67.8491L161.937 4.40481Z" stroke="#E3E3E3" stroke-width="6"/>
<path d="M161.937 49.7329C162.696 49.4058 163.556 49.4058 164.314 49.7329L311.389 113.177C313.805 114.219 313.805 117.644 311.389 118.686L164.314 182.131C163.556 182.458 162.696 182.458 161.937 182.131L14.8621 118.686C12.4465 117.644 12.4465 114.219 14.8621 113.177L161.937 49.7329Z" stroke="#E3E3E3" stroke-width="6"/>
<path d="M161.937 88.6978C162.696 88.3706 163.556 88.3706 164.314 88.6978L311.389 152.142C313.805 153.184 313.805 156.609 311.389 157.651L164.314 221.096C163.556 221.423 162.696 221.423 161.937 221.096L14.8621 157.651C12.4465 156.609 12.4465 153.184 14.8621 152.142L161.937 88.6978Z" stroke="#E3E3E3" stroke-width="6"/>
</svg>
