<svg width="128" height="42" viewBox="0 0 128 42" fill="none" xmlns="http://www.w3.org/2000/svg">
<g clip-path="url(#clip0_1080_4)">
<path d="M119.168 10.897L119.27 29.0483M119.018 2.04834C119.018 2.04834 116.81 3.67088 116.81 6.55544C116.81 9.43994 119.018 11.1751 119.018 11.1751C119.018 11.1751 121.226 9.48494 121.226 6.55544C121.226 3.62582 119.018 2.04834 119.018 2.04834ZM126.148 8.24944C126.148 8.24944 123.765 7.26284 121.561 8.86934C119.357 10.4758 119.175 13.3323 119.175 13.3323C119.175 13.3323 121.609 14.2812 123.848 12.6497C126.086 11.0181 126.148 8.24944 126.148 8.24944ZM126.148 13.9217C126.148 13.9217 123.765 12.9352 121.561 14.5416C119.357 16.1481 119.175 19.0047 119.175 19.0047C119.175 19.0047 121.609 19.9535 123.848 18.322C126.086 16.6904 126.148 13.9217 126.148 13.9217ZM126.148 19.1401C126.148 19.1401 123.765 18.1536 121.561 19.76C119.357 21.3665 119.175 24.223 119.175 24.223C119.175 24.223 121.609 25.172 123.848 23.5404C126.086 21.9089 126.148 19.1401 126.148 19.1401ZM112.148 8.24944C112.148 8.24944 114.531 7.26284 116.735 8.86934C118.939 10.4758 119.121 13.3323 119.121 13.3323C119.121 13.3323 116.687 14.2812 114.448 12.6497C112.21 11.0181 112.148 8.24944 112.148 8.24944ZM112.148 13.9217C112.148 13.9217 114.531 12.9352 116.735 14.5416C118.939 16.1481 119.121 19.0047 119.121 19.0047C119.121 19.0047 116.687 19.9535 114.448 18.322C112.21 16.6904 112.148 13.9217 112.148 13.9217ZM112.148 19.1401C112.148 19.1401 114.531 18.1536 116.735 19.76C118.939 21.3665 119.121 24.223 119.121 24.223C119.121 24.223 116.687 25.172 114.448 23.5404C112.21 21.9089 112.148 19.1401 112.148 19.1401Z" stroke="#5BA940" stroke-width="2"/>
<path d="M0.576172 28.7301V3.39159H4.18178L12.8491 24.7441H12.9531L21.6204 3.39159H25.226V28.7301H22.3138V9.15114H22.2098L14.2185 28.7301H11.5836L3.59242 9.15114H3.48841V28.7301H0.576172ZM31.6773 28.7301V3.39159H35.283L43.9503 24.7441H44.0543L52.7216 3.39159H56.3272V28.7301H53.4151V9.15114H53.311L45.3197 28.7301H42.6849L34.6935 9.15114H34.5895V28.7301H31.6773ZM70.9605 29.1515C65.552 29.1515 61.8943 26.4649 61.5825 22.1277L61.5649 21.8818H64.6852L64.72 22.1277C65.0838 24.6738 67.5109 26.2366 71.1338 26.2366C74.7394 26.2366 77.0101 24.586 77.0101 21.9696V21.9521C77.0101 19.722 75.5714 18.4753 72.139 17.7027L69.3657 17.0881C64.4771 15.9994 62.1892 13.7693 62.1892 10.0642V10.0466C62.2064 5.88504 65.8465 2.97015 70.9949 2.97015C75.8836 2.97015 79.4544 5.83234 79.7318 9.97644L79.749 10.2398H76.6287L76.5943 9.99404C76.2129 7.41274 74.0807 5.88504 70.9084 5.88504C67.563 5.90264 65.3787 7.51814 65.3787 9.95894V9.97644C65.3787 12.0484 66.8866 13.3479 70.1457 14.0678L72.919 14.6824C78.0502 15.8238 80.1996 17.9309 80.1996 21.794V21.8116C80.1996 26.3069 76.6808 29.1515 70.9605 29.1515ZM95.4051 29.1515C89.199 29.1515 85.4549 25.3586 85.4549 19.8449V3.39159H88.5751V19.6342C88.5751 23.5324 91.0715 26.2366 95.4051 26.2366C99.7384 26.2366 102.2 23.5324 102.2 19.6342V3.39159H105.32V19.8449C105.32 25.3586 101.61 29.1515 95.4051 29.1515Z" fill="#F9F9F9"/>
<path d="M0 39.412L2.2408 33.3911H2.7969L5.03356 39.412H4.4404L3.77723 37.5676H1.26046L0.59728 39.412H0ZM2.51268 34.0879L1.43758 37.0756H3.60011L2.52502 34.0879H2.51268ZM9.04564 39.4872C8.09821 39.4872 7.53387 38.8698 7.53387 37.8514V35.0724H8.08172V37.7596C8.08172 38.565 8.47714 38.9947 9.20214 38.9947C9.95184 38.9947 10.4461 38.4525 10.4461 37.6428V35.0724H10.9939V39.412H10.4461V38.6736H10.4337C10.2154 39.1407 9.73764 39.4872 9.04564 39.4872ZM15.319 39.4914C14.6146 39.4914 14.2686 39.1532 14.2686 38.3941V35.5356H13.6384V35.0724H14.2686V33.9002H14.8288V35.0724H15.6774V35.5356H14.8288V38.3855C14.8288 38.8655 15.0306 39.0282 15.4302 39.0282C15.5291 39.0282 15.6156 39.0157 15.6774 39.0072V39.458C15.5909 39.4747 15.4508 39.4914 15.319 39.4914ZM20.1384 39.4914C18.9685 39.4872 18.1859 38.6191 18.1859 37.2422V37.234C18.1859 35.8571 18.9727 34.9933 20.1384 34.9933C21.3 34.9933 22.0908 35.8529 22.0908 37.234V37.2422C22.0908 38.6234 21.3041 39.4914 20.1384 39.4914ZM20.1425 38.999C20.9787 38.999 21.5348 38.3396 21.5348 37.2422V37.234C21.5348 36.1366 20.9745 35.4858 20.1384 35.4858C19.3022 35.4858 18.7461 36.1406 18.7461 37.234V37.2422C18.7461 38.3439 19.2981 38.9947 20.1425 38.999ZM31.2971 39.5082C29.6659 39.5082 28.6114 38.2855 28.6114 36.3994V36.3951C28.6114 34.5052 29.6577 33.2949 31.2971 33.2949C32.5287 33.2949 33.4389 34.0629 33.6614 35.1895L33.6698 35.2312H33.1054L33.0806 35.156C32.8541 34.3425 32.2239 33.8251 31.2971 33.8251C30.0119 33.8251 29.1881 34.8306 29.1881 36.3951V36.3994C29.1881 37.96 30.0202 38.978 31.2971 38.978C32.2198 38.978 32.8458 38.4649 33.093 37.6097L33.1054 37.5719H33.6698L33.6614 37.6136C33.4389 38.7487 32.5328 39.5082 31.2971 39.5082ZM36.5244 39.412V35.0724H37.0681V35.8529H37.0843C37.2368 35.323 37.6158 34.9933 38.1349 34.9933C38.279 34.9933 38.4066 35.0225 38.4727 35.0432V35.5815C38.4024 35.5523 38.2502 35.5231 38.0646 35.5231C37.4551 35.5231 37.0681 35.9907 37.0681 36.7249V39.412H36.5244ZM42.6619 39.4914C41.4917 39.4872 40.7093 38.6191 40.7093 37.2422V37.234C40.7093 35.8571 41.496 34.9933 42.6619 34.9933C43.8232 34.9933 44.6141 35.8529 44.6141 37.234V37.2422C44.6141 38.6234 43.8274 39.4914 42.6619 39.4914ZM42.6657 38.999C43.502 38.999 44.058 38.3396 44.058 37.2422V37.234C44.058 36.1366 43.4981 35.4858 42.6619 35.4858C41.8257 35.4858 41.2696 36.1406 41.2696 37.234V37.2422C41.2696 38.3439 41.8214 38.9947 42.6657 38.999ZM47.4482 40.8726V35.0724H47.992V35.9907H48.0085C48.2472 35.4021 48.7744 34.9933 49.4623 34.9933C50.5499 34.9933 51.2789 35.8863 51.2789 37.2422V37.2465C51.2789 38.6066 50.5456 39.4914 49.4707 39.4914C48.7867 39.4914 48.2433 39.0866 48.0085 38.5066H47.992V40.8726H47.4482ZM49.3678 38.999C50.1913 38.999 50.7228 38.3104 50.7228 37.2465V37.2422C50.7228 36.1701 50.1913 35.4858 49.3678 35.4858C48.5604 35.4858 47.992 36.1908 47.992 37.2422V37.2465C47.992 38.2937 48.5646 38.999 49.3678 38.999ZM54.1211 40.8726V35.0724H54.6648V35.9907H54.6814C54.9204 35.4021 55.4476 34.9933 56.1355 34.9933C57.2227 34.9933 57.9521 35.8863 57.9521 37.2422V37.2465C57.9521 38.6066 57.2188 39.4914 56.1436 39.4914C55.4599 39.4914 54.9162 39.0866 54.6814 38.5066H54.6648V40.8726H54.1211ZM56.0406 38.999C56.8645 38.999 57.396 38.3104 57.396 37.2465V37.2422C57.396 36.1701 56.8645 35.4858 56.0406 35.4858C55.2332 35.4858 54.6648 36.1908 54.6648 37.2422V37.2465C54.6648 38.2937 55.2374 38.999 56.0406 38.999ZM61.1113 34.288C60.9096 34.288 60.7489 34.1253 60.7489 33.9209C60.7489 33.7165 60.9096 33.558 61.1113 33.558C61.3089 33.558 61.4695 33.7165 61.4695 33.9209C61.4695 34.1253 61.3089 34.288 61.1113 34.288ZM60.8354 39.412V35.0724H61.383V39.412H60.8354ZM64.4766 39.412V35.0724H65.0204V35.8112H65.0369C65.2509 35.3437 65.7328 34.9976 66.4249 34.9976C67.3722 34.9976 67.9325 35.615 67.9325 36.633V39.412H67.3888V36.7249C67.3888 35.9194 66.9933 35.4897 66.2643 35.4897C65.5188 35.4897 65.0204 36.0323 65.0204 36.8416V39.412H64.4766ZM72.7396 40.9517C71.722 40.9517 71.096 40.4592 70.9438 39.8461L70.9354 39.8126H71.4834L71.4999 39.85C71.644 40.2007 72.0806 40.4592 72.7354 40.4592C73.5551 40.4592 74.0331 39.9921 74.0331 39.2536V38.4898H74.0205C73.7941 39.0574 73.2503 39.4622 72.5625 39.4622C71.4834 39.4622 70.7459 38.5774 70.7459 37.2255V37.2216C70.7459 35.8778 71.4914 34.9933 72.5705 34.9933C73.2546 34.9933 73.786 35.4145 74.0205 35.9907H74.0331V35.0724H74.5808V39.2995C74.5808 40.3008 73.8725 40.9517 72.7396 40.9517ZM72.6697 38.9698C73.4771 38.9698 74.0331 38.2687 74.0331 37.2255V37.2216C74.0331 36.1826 73.4728 35.4858 72.6697 35.4858C71.8415 35.4858 71.3062 36.174 71.3062 37.2216V37.2255C71.3062 38.2855 71.8415 38.9698 72.6697 38.9698ZM83.9971 39.5082C82.3661 39.5082 81.3116 38.2855 81.3116 36.3994V36.3951C81.3116 34.5052 82.3577 33.2949 83.9971 33.2949C85.2287 33.2949 86.1391 34.0629 86.3616 35.1895L86.3697 35.2312H85.8055L85.7806 35.156C85.5542 34.3425 84.924 33.8251 83.9971 33.8251C82.712 33.8251 81.8881 34.8306 81.8881 36.3951V36.3994C81.8881 37.96 82.7201 38.978 83.9971 38.978C84.9197 38.978 85.5461 38.4649 85.7932 37.6097L85.8055 37.5719H86.3697L86.3616 37.6136C86.1391 38.7487 85.2329 39.5082 83.9971 39.5082ZM90.4931 39.4914C89.6485 39.4914 89.072 38.978 89.072 38.2103V38.2021C89.072 37.4633 89.6238 37.0168 90.6084 36.9502L91.943 36.8669V36.4913C91.943 35.8653 91.5515 35.4858 90.8843 35.4858C90.2622 35.4858 89.8544 35.7902 89.7641 36.2826L89.7557 36.3243H89.2284L89.2326 36.2744C89.3149 35.5274 89.9247 34.9933 90.8924 34.9933C91.8731 34.9933 92.4868 35.5523 92.4868 36.4411V39.412H91.943V38.6191H91.9265C91.6917 39.1368 91.1272 39.4914 90.4931 39.4914ZM89.6281 38.2103C89.6281 38.686 90.0235 39.0072 90.6042 39.0072C91.3539 39.0072 91.943 38.4731 91.943 37.7806V37.3006L90.6741 37.3882C90.0028 37.4302 89.6281 37.7265 89.6281 38.2021V38.2103ZM95.5473 39.412V33.3911H96.0911V39.412H95.5473ZM100.91 39.4914C99.7074 39.4914 98.9614 38.6276 98.9614 37.2547V37.2508C98.9614 35.8902 99.7204 34.9933 100.865 34.9933C102.01 34.9933 102.73 35.861 102.73 37.1589V37.3757H99.5144C99.5304 38.4108 100.078 38.999 100.922 38.999C101.553 38.999 101.989 38.6778 102.129 38.2061L102.138 38.1687H102.677L102.669 38.2103C102.521 38.9531 101.837 39.4914 100.91 39.4914ZM100.861 35.4858C100.132 35.4858 99.5884 36.0156 99.5224 36.9378H102.183C102.121 35.9907 101.594 35.4858 100.861 35.4858ZM105.568 39.412V35.0724H106.112V35.8112H106.129C106.343 35.3437 106.825 34.9976 107.517 34.9976C108.464 34.9976 109.024 35.615 109.024 36.633V39.412H108.481V36.7249C108.481 35.9194 108.086 35.4897 107.356 35.4897C106.611 35.4897 106.112 36.0323 106.112 36.8416V39.412H105.568ZM113.65 39.4914C112.571 39.4914 111.838 38.5984 111.838 37.2422V37.2383C111.838 35.8821 112.575 34.9933 113.646 34.9933C114.318 34.9933 114.869 35.3772 115.113 35.9778H115.125V33.3911H115.673V39.412H115.125V38.5109H115.109C114.861 39.1076 114.326 39.4914 113.65 39.4914ZM113.753 38.999C114.561 38.999 115.129 38.2897 115.129 37.2422V37.2383C115.129 36.195 114.552 35.4858 113.753 35.4858C112.93 35.4858 112.398 36.174 112.398 37.2383V37.2422C112.398 38.3147 112.93 38.999 113.753 38.999ZM120.027 39.4914C119.182 39.4914 118.606 38.978 118.606 38.2103V38.2021C118.606 37.4633 119.158 37.0168 120.142 36.9502L121.477 36.8669V36.4913C121.477 35.8653 121.085 35.4858 120.418 35.4858C119.796 35.4858 119.388 35.7902 119.298 36.2826L119.29 36.3243H118.762L118.766 36.2744C118.849 35.5274 119.458 34.9933 120.426 34.9933C121.407 34.9933 122.02 35.5523 122.02 36.4411V39.412H121.477V38.6191H121.46C121.225 39.1368 120.661 39.4914 120.027 39.4914ZM119.162 38.2103C119.162 38.686 119.557 39.0072 120.138 39.0072C120.887 39.0072 121.477 38.4731 121.477 37.7806V37.3006L120.208 37.3882C119.537 37.4302 119.162 37.7265 119.162 38.2021V38.2103ZM125.044 39.412V35.0724H125.587V35.8529H125.604C125.756 35.323 126.135 34.9933 126.655 34.9933C126.799 34.9933 126.926 35.0225 126.992 35.0432V35.5815C126.922 35.5523 126.77 35.5231 126.584 35.5231C125.975 35.5231 125.587 35.9907 125.587 36.7249V39.412H125.044Z" fill="#F9F9F9"/>
</g>
<defs>
<clipPath id="clip0_1080_4">
<rect width="128" height="41" fill="white" transform="translate(0 0.5)"/>
</clipPath>
</defs>
</svg>
